<?xml version="1.0" standalone="no"?>
<!DOCTYPE svg PUBLIC "-//W3C//DTD SVG 20010904//EN"
 "http://www.w3.org/TR/2001/REC-SVG-20010904/DTD/svg10.dtd">
<svg version="1.0" xmlns="http://www.w3.org/2000/svg"
 width="225.000000pt" height="225.000000pt" viewBox="0 0 225.000000 225.000000"
 preserveAspectRatio="xMidYMid meet">

<g transform="translate(0.000000,225.000000) scale(0.100000,-0.100000)"
fill="#000000" stroke="none">
<path d="M930 2075 c-390 -83 -691 -392 -759 -779 -15 -85 -14 -271 3 -358 76
-392 398 -705 790 -768 96 -16 320 -8 400 14 353 98 605 350 704 708 24 90 24
376 0 466 -99 358 -349 609 -704 708 -81 23 -346 28 -434 9z m321 -483 c291
-76 441 -409 308 -681 -38 -78 -130 -173 -205 -213 -273 -146 -612 0 -695 300
-100 358 230 688 592 594z"/>
<path d="M1028 1477 c-102 -39 -176 -106 -220 -203 -19 -41 -23 -66 -23 -149
0 -87 3 -107 26 -155 37 -78 88 -131 161 -170 54 -29 75 -35 148 -38 105 -5
169 16 252 85 32 25 56 48 54 50 -1 2 -24 -9 -51 -23 -106 -60 -258 -38 -347
49 -59 57 -81 107 -86 194 -3 60 0 80 20 125 46 99 136 163 246 174 68 7 152
-13 198 -48 27 -20 26 -19 -5 15 -18 19 -61 50 -95 68 -54 29 -72 33 -151 36
-59 2 -103 -1 -127 -10z"/>
<path d="M1218 1236 l-3 -68 -45 -18 c-25 -9 -54 -20 -65 -24 -16 -6 -6 -12
45 -29 l65 -22 5 -70 5 -70 38 53 c21 28 45 52 53 52 7 0 37 -9 66 -20 29 -11
54 -20 56 -20 1 0 -16 27 -38 60 l-41 60 36 55 c19 31 35 57 35 59 0 2 -27 -6
-60 -18 l-60 -21 -24 30 c-13 17 -33 41 -44 55 l-21 25 -3 -69z"/>
</g>
</svg>
