<?xml version="1.0" standalone="no"?>
<!DOCTYPE svg PUBLIC "-//W3C//DTD SVG 20010904//EN"
 "http://www.w3.org/TR/2001/REC-SVG-20010904/DTD/svg10.dtd">
<svg version="1.0" xmlns="http://www.w3.org/2000/svg"
 width="322.000000pt" height="132.000000pt" viewBox="0 0 322.000000 132.000000"
 preserveAspectRatio="xMidYMid meet">

<g transform="translate(0.000000,132.000000) scale(0.100000,-0.100000)"
fill="#000000" stroke="none">
<path d="M522 1275 c-298 -67 -506 -345 -489 -651 15 -258 184 -477 437 -565
54 -19 86 -23 190 -23 110 0 134 3 198 26 101 36 172 82 245 155 74 73 119
145 155 245 23 64 26 88 26 198 0 110 -3 134 -26 198 -36 101 -82 173 -154
246 -119 118 -252 176 -419 182 -64 2 -123 -1 -163 -11z m281 -70 c97 -25 176
-72 252 -149 114 -115 165 -237 165 -396 0 -159 -51 -282 -165 -395 -114 -115
-234 -165 -393 -165 -161 0 -283 50 -397 165 -115 115 -165 234 -165 395 0
162 50 283 164 395 117 115 230 163 391 164 51 1 116 -6 148 -14z"/>
<path d="M542 1064 c-97 -48 -141 -126 -142 -246 l0 -78 50 0 50 0 0 74 c0 83
21 126 78 159 40 24 117 25 159 3 56 -28 78 -71 82 -158 l3 -78 49 0 49 0 0
78 c0 123 -51 206 -155 253 -62 28 -158 25 -223 -7z"/>
<path d="M350 680 l0 -40 310 0 310 0 0 40 0 40 -310 0 -310 0 0 -40z"/>
<path d="M350 580 l0 -40 135 0 135 0 0 40 0 40 -135 0 -135 0 0 -40z"/>
<path d="M710 580 l0 -40 130 0 130 0 0 40 0 40 -130 0 -130 0 0 -40z"/>
<path d="M1060 525 l-95 -95 -126 0 c-69 0 -208 -3 -307 -7 l-182 -6 0 -39 0
-38 262 0 263 0 -90 -90 c-49 -49 -83 -90 -74 -90 8 0 41 7 74 15 137 36 257
132 319 256 31 62 64 174 54 184 -2 3 -46 -38 -98 -90z"/>
<path d="M717 523 c-4 -3 -7 -24 -7 -45 l0 -38 130 0 130 0 0 45 0 45 -123 0
c-68 0 -127 -3 -130 -7z"/>
<path d="M352 483 l3 -38 133 -3 132 -3 0 41 0 40 -136 0 -135 0 3 -37z"/>
<path d="M1500 665 c0 -148 1 -155 20 -155 18 0 20 7 20 70 0 39 3 70 8 70 4
0 39 -31 77 -70 55 -56 76 -70 100 -70 29 0 27 2 -53 83 l-83 84 73 71 c62 61
70 72 50 72 -15 0 -49 -23 -91 -60 -37 -33 -71 -60 -74 -60 -4 0 -7 27 -7 60
0 53 -2 60 -20 60 -19 0 -20 -7 -20 -155z"/>
<path d="M2280 666 c0 -148 1 -156 20 -156 16 0 19 8 22 63 l3 62 56 5 c74 7
99 28 99 85 0 71 -23 89 -119 93 l-81 4 0 -156z m148 97 c33 -45 0 -93 -65
-93 l-43 0 0 53 c0 30 3 57 8 61 12 13 86 -3 100 -21z"/>
<path d="M1787 720 c-54 -43 -54 -147 0 -189 18 -15 40 -21 79 -21 65 0 84 7
84 31 0 16 -3 18 -19 9 -25 -13 -87 -13 -111 0 -10 5 -23 23 -28 40 l-11 30
90 0 89 0 0 29 c0 17 -11 42 -26 60 -22 27 -32 31 -74 31 -33 0 -55 -6 -73
-20z m115 -27 c35 -32 23 -43 -47 -43 -69 0 -79 8 -48 42 20 22 70 23 95 1z"/>
<path d="M2047 720 c-54 -43 -54 -147 0 -189 18 -15 40 -21 79 -21 65 0 84 7
84 31 0 16 -3 18 -19 9 -25 -13 -87 -13 -111 0 -10 5 -23 23 -28 40 l-11 30
90 0 89 0 0 29 c0 17 -11 42 -26 60 -22 27 -32 31 -74 31 -33 0 -55 -6 -73
-20z m115 -27 c35 -32 23 -43 -47 -43 -69 0 -79 8 -48 42 20 22 70 23 95 1z"/>
<path d="M2533 733 c-7 -2 -13 -11 -13 -18 0 -10 14 -12 59 -8 53 5 60 3 75
-18 l17 -24 -61 -6 c-37 -4 -68 -13 -80 -24 -26 -24 -27 -86 -2 -108 24 -21
90 -22 120 -1 20 14 22 14 22 0 0 -9 7 -16 15 -16 12 0 15 17 15 89 0 74 -3
92 -21 115 -18 23 -27 26 -77 25 -31 0 -63 -3 -69 -6z m131 -130 c-11 -45 -34
-64 -72 -61 -26 2 -37 9 -43 26 -13 35 20 62 76 62 44 0 45 -1 39 -27z"/>
<path d="M2786 721 c-11 -12 -16 -31 -14 -53 3 -31 7 -34 63 -53 52 -18 60
-24 60 -45 0 -24 -2 -25 -67 -23 -51 1 -68 -2 -68 -12 0 -18 30 -27 86 -27 62
0 94 23 94 67 0 37 -23 56 -87 69 -43 10 -60 31 -42 52 10 12 26 15 67 12 44
-4 52 -2 50 11 -2 12 -18 17 -64 19 -49 2 -63 -1 -78 -17z"/>
<path d="M3006 721 c-11 -12 -16 -31 -14 -53 3 -31 7 -34 63 -53 52 -18 60
-24 60 -45 0 -24 -2 -25 -67 -23 -51 1 -68 -2 -68 -12 0 -18 30 -27 86 -27 62
0 94 23 94 67 0 37 -23 56 -87 69 -43 10 -60 31 -42 52 10 12 26 15 67 12 44
-4 52 -2 50 11 -2 12 -18 17 -64 19 -49 2 -63 -1 -78 -17z"/>
</g>
</svg>
