<?xml version="1.0" standalone="no"?>
<!DOCTYPE svg PUBLIC "-//W3C//DTD SVG 20010904//EN"
 "http://www.w3.org/TR/2001/REC-SVG-20010904/DTD/svg10.dtd">
<svg version="1.0" xmlns="http://www.w3.org/2000/svg"
 width="225.000000pt" height="225.000000pt" viewBox="0 0 225.000000 225.000000"
 preserveAspectRatio="xMidYMid meet">

<g transform="translate(0.000000,225.000000) scale(0.100000,-0.100000)"
fill="#000000" stroke="none">
<path d="M993 2159 c-18 -5 -33 -14 -33 -19 0 -6 -6 -10 -14 -10 -12 0 -39
-27 -86 -87 -5 -6 -12 -24 -15 -40 -4 -23 -4 -24 4 -8 8 18 10 18 10 2 1 -10
-16 -28 -41 -43 -54 -33 -107 -98 -135 -166 -19 -47 -20 -56 -8 -85 8 -18 17
-53 20 -78 5 -28 12 -45 21 -45 16 0 19 -16 4 -25 -5 -3 -10 -12 -10 -18 0 -7
4 -6 11 3 8 11 12 12 16 2 2 -6 8 -10 13 -7 4 3 8 -12 8 -33 1 -42 15 -87 32
-97 8 -5 10 8 9 42 -1 26 1 73 5 104 5 38 4 59 -3 63 -14 9 -14 36 0 36 5 0 8
-4 5 -9 -3 -5 0 -21 8 -35 l14 -27 6 24 c5 21 14 26 58 31 84 12 166 9 186 -7
7 -5 15 -7 18 -4 3 3 -4 10 -15 17 -12 6 -21 17 -21 24 0 33 -147 29 -181 -5
-11 -11 -21 -14 -25 -8 -4 6 -11 5 -21 -3 -18 -15 -19 -20 18 102 12 41 24 83
26 94 5 27 41 74 61 80 40 11 202 16 203 6 1 -5 2 -15 3 -22 2 -19 61 -55 103
-63 21 -3 57 -15 79 -25 38 -16 43 -23 58 -76 9 -33 20 -71 25 -86 6 -17 6
-28 0 -28 -5 0 -9 5 -9 10 0 6 -6 10 -14 10 -8 0 -33 9 -57 20 -24 11 -59 20
-78 20 -54 0 -169 -85 -146 -108 3 -3 5 -2 5 2 0 4 12 -6 26 -23 14 -17 29
-29 32 -27 4 2 8 -14 9 -36 0 -23 10 -53 22 -69 28 -38 27 -42 -13 -35 -40 8
-91 -9 -80 -26 5 -8 0 -9 -14 -6 -12 4 -25 2 -28 -3 -3 -5 -1 -9 5 -9 6 0 7
-7 4 -17 -4 -10 -2 -14 5 -9 6 3 14 1 17 -5 4 -6 18 -8 30 -5 13 3 27 2 30 -4
3 -6 -4 -10 -17 -10 -13 0 -30 -4 -37 -9 -12 -8 -9 -11 12 -16 15 -4 37 -5 48
-2 16 4 20 1 17 -16 -3 -23 -5 -24 -68 -26 -38 -1 -39 -2 -28 -21 7 -11 22
-20 33 -21 20 0 20 0 0 -8 -11 -5 -23 -7 -27 -4 -5 2 -8 -1 -8 -7 0 -6 7 -13
15 -16 14 -6 13 -8 -2 -19 -17 -13 -17 -14 -1 -20 15 -6 14 -10 -5 -43 -30
-52 -43 -63 -64 -55 -15 6 -16 4 -5 -9 25 -31 147 -51 200 -33 19 6 22 4 22
-19 0 -18 4 -24 15 -20 8 4 15 11 15 16 0 5 9 17 20 26 11 10 23 35 27 57 3
22 15 46 25 55 11 8 21 31 23 50 3 24 2 29 -3 16 -7 -17 -9 -17 -15 -4 -3 9
-3 19 1 23 4 3 7 14 7 23 0 9 5 16 12 15 7 -2 10 4 7 12 -4 8 -10 16 -15 16
-5 1 -15 2 -21 3 -7 1 -20 -4 -30 -12 -9 -8 -18 -9 -22 -4 -3 5 1 15 9 22 21
17 18 70 -5 100 -25 32 -25 43 0 30 18 -10 20 -8 20 24 0 27 5 36 23 42 l22 8
-22 5 c-22 6 -22 7 -8 35 20 38 19 46 -7 47 -22 0 -22 1 -3 9 11 4 31 6 44 3
21 -5 22 -4 12 15 -6 11 -24 26 -41 34 -29 12 -40 28 -20 28 19 0 79 -34 74
-42 -3 -4 2 -5 10 -2 10 4 16 1 16 -7 0 -11 2 -11 10 1 15 25 30 -33 30 -123
1 -62 3 -78 11 -64 8 14 14 16 25 6 7 -6 11 -15 8 -20 -3 -5 5 -7 18 -5 17 2
23 9 21 27 -2 33 -12 92 -17 106 -7 17 5 24 21 12 7 -7 13 -31 13 -57 0 -52
14 -47 24 8 4 25 1 42 -9 55 -18 25 -19 41 -1 26 18 -15 26 37 27 181 1 83 -2
113 -14 130 -135 192 -185 241 -261 252 -26 4 -72 16 -104 27 -67 24 -174 33
-219 18z m-213 -429 c0 -5 -5 -10 -11 -10 -5 0 -7 5 -4 10 3 6 8 10 11 10 2 0
4 -4 4 -10z m605 -101 c11 -16 1 -19 -13 -3 -7 8 -8 14 -3 14 5 0 13 -5 16
-11z m63 -14 c-3 -3 -9 2 -12 12 -6 14 -5 15 5 6 7 -7 10 -15 7 -18z m-28 -5
c0 -5 -2 -10 -4 -10 -3 0 -8 5 -11 10 -3 6 -1 10 4 10 6 0 11 -4 11 -10z
m-197 -410 c-9 -16 -21 -30 -26 -30 -4 0 -5 5 -2 10 3 6 -1 10 -9 10 -17 0
-17 20 -1 32 6 4 20 8 33 8 23 0 23 0 5 -30z m92 -47 c-5 -10 -7 -21 -7 -25 1
-5 -2 -8 -8 -8 -14 0 -13 33 2 48 15 15 22 7 13 -15z m-125 -40 c-12 -8 -24
-12 -28 -8 -9 9 28 36 40 29 5 -4 0 -13 -12 -21z m46 -22 c1 -6 0 -7 -2 -2 -3
5 -14 6 -26 3 -14 -3 -19 -1 -15 6 9 13 40 9 43 -7z m54 -71 c0 -5 -5 -10 -11
-10 -5 0 -7 5 -4 10 3 6 8 10 11 10 2 0 4 -4 4 -10z"/>
<path d="M961 1616 c-14 -8 -30 -12 -36 -9 -7 2 -18 -3 -25 -12 -7 -8 -10 -16
-6 -16 55 -11 77 -21 73 -32 -2 -7 -10 -11 -17 -9 -23 5 -43 -7 -33 -21 6 -6
13 -24 17 -39 5 -22 12 -28 32 -28 40 0 83 28 84 54 0 6 -13 -3 -29 -18 -20
-19 -36 -26 -47 -22 -15 6 -15 9 5 30 17 18 19 25 9 28 -7 3 2 8 19 12 38 9
40 11 45 55 3 32 1 34 -32 37 -19 2 -46 -3 -59 -10z"/>
<path d="M722 1500 c0 -14 2 -19 5 -12 2 6 2 18 0 25 -3 6 -5 1 -5 -13z"/>
<path d="M956 1389 c-10 -17 -15 -33 -12 -36 7 -7 45 38 46 55 0 21 -15 13
-34 -19z"/>
<path d="M1540 1360 c-8 -5 -12 -12 -9 -15 4 -3 12 1 19 10 14 17 11 19 -10 5z"/>
<path d="M1440 1274 c-24 -65 -26 -85 -5 -58 8 10 15 29 15 40 0 24 15 40 42
45 15 3 13 6 -7 15 -23 11 -25 10 -45 -42z"/>
<path d="M946 1288 c-3 -13 -1 -27 4 -32 4 -4 6 -15 3 -22 -7 -18 2 -18 21 1
12 12 20 13 35 5 32 -17 46 -11 22 9 -13 11 -20 25 -16 30 3 7 -3 11 -14 11
-12 0 -21 5 -21 10 0 20 -28 10 -34 -12z"/>
<path d="M1480 865 c34 -41 -142 -147 -305 -186 -109 -26 -189 -22 -259 12
-63 30 -74 48 -59 90 12 30 11 31 -6 15 -21 -19 -203 -93 -296 -120 -184 -54
-270 -109 -336 -216 -25 -40 -77 -192 -114 -332 l-34 -128 1090 0 1089 0 0 46
c0 25 -18 128 -41 227 -36 164 -44 188 -81 242 -32 46 -60 72 -122 111 -45 28
-107 61 -139 73 -32 12 -84 38 -115 60 -31 21 -78 43 -105 50 -26 6 -72 25
-102 41 -62 34 -85 39 -65 15z"/>
<path d="M1105 814 c-32 -35 -23 -47 19 -27 25 11 32 20 29 34 -7 26 -19 24
-48 -7z"/>
</g>
</svg>
